<svg width="51" height="519" viewBox="0 0 51 519" fill="none" xmlns="http://www.w3.org/2000/svg">
<circle opacity="0.6" r="4" transform="matrix(-1 0 0 1 5.5 4.5)" stroke="#4B2EFF"/>
<path opacity="0.6" d="M50 5V4.5H50.5V5H50ZM50 515H50.5V515.5H50V515ZM0.646446 515.354C0.451183 515.158 0.451183 514.842 0.646446 514.646L3.82843 511.464C4.02369 511.269 4.34027 511.269 4.53553 511.464C4.7308 511.66 4.7308 511.976 4.53553 512.172L1.70711 515L4.53553 517.828C4.7308 518.024 4.7308 518.34 4.53553 518.536C4.34027 518.731 4.02369 518.731 3.82843 518.536L0.646446 515.354ZM10 4.5H11.5V5.5H10V4.5ZM13.5 4.5H16.5V5.5H13.5V4.5ZM18.5 4.5H21.5V5.5H18.5V4.5ZM23.5 4.5H26.5V5.5H23.5V4.5ZM28.5 4.5H31.5V5.5H28.5V4.5ZM33.5 4.5H36.5V5.5H33.5V4.5ZM38.5 4.5H41.5V5.5H38.5V4.5ZM43.5 4.5H46.5V5.5H43.5V4.5ZM48.5 4.5H50V5.5H48.5V4.5ZM50.5 5V6.5H49.5V5H50.5ZM50.5 8.5V11.5H49.5V8.5H50.5ZM50.5 13.5V16.5H49.5V13.5H50.5ZM50.5 18.5V21.5H49.5V18.5H50.5ZM50.5 23.5V26.5H49.5V23.5H50.5ZM50.5 28.5V31.5H49.5V28.5H50.5ZM50.5 33.5V36.5H49.5V33.5H50.5ZM50.5 38.5V41.5H49.5V38.5H50.5ZM50.5 43.5V46.5H49.5V43.5H50.5ZM50.5 48.5V51.5H49.5V48.5H50.5ZM50.5 53.5V56.5H49.5V53.5H50.5ZM50.5 58.5V61.5H49.5V58.5H50.5ZM50.5 63.5V66.5H49.5V63.5H50.5ZM50.5 68.5V71.5H49.5V68.5H50.5ZM50.5 73.5V76.5H49.5V73.5H50.5ZM50.5 78.5V81.5H49.5V78.5H50.5ZM50.5 83.5V86.5H49.5V83.5H50.5ZM50.5 88.5V91.5H49.5V88.5H50.5ZM50.5 93.5V96.5H49.5V93.5H50.5ZM50.5 98.5V101.5H49.5V98.5H50.5ZM50.5 103.5V106.5H49.5V103.5H50.5ZM50.5 108.5V111.5H49.5V108.5H50.5ZM50.5 113.5V116.5H49.5V113.5H50.5ZM50.5 118.5V121.5H49.5V118.5H50.5ZM50.5 123.5V126.5H49.5V123.5H50.5ZM50.5 128.5V131.5H49.5V128.5H50.5ZM50.5 133.5V136.5H49.5V133.5H50.5ZM50.5 138.5V141.5H49.5V138.5H50.5ZM50.5 143.5V146.5H49.5V143.5H50.5ZM50.5 148.5V151.5H49.5V148.5H50.5ZM50.5 153.5V156.5H49.5V153.5H50.5ZM50.5 158.5V161.5H49.5V158.5H50.5ZM50.5 163.5V166.5H49.5V163.5H50.5ZM50.5 168.5V171.5H49.5V168.5H50.5ZM50.5 173.5V176.5H49.5V173.5H50.5ZM50.5 178.5V181.5H49.5V178.5H50.5ZM50.5 183.5V186.5H49.5V183.5H50.5ZM50.5 188.5V191.5H49.5V188.5H50.5ZM50.5 193.5V196.5H49.5V193.5H50.5ZM50.5 198.5V201.5H49.5V198.5H50.5ZM50.5 203.5V206.5H49.5V203.5H50.5ZM50.5 208.5V211.5H49.5V208.5H50.5ZM50.5 213.5V216.5H49.5V213.5H50.5ZM50.5 218.5V221.5H49.5V218.5H50.5ZM50.5 223.5V226.5H49.5V223.5H50.5ZM50.5 228.5V231.5H49.5V228.5H50.5ZM50.5 233.5V236.5H49.5V233.5H50.5ZM50.5 238.5V241.5H49.5V238.5H50.5ZM50.5 243.5V246.5H49.5V243.5H50.5ZM50.5 248.5V251.5H49.5V248.5H50.5ZM50.5 253.5V256.5H49.5V253.5H50.5ZM50.5 258.5V261.5H49.5V258.5H50.5ZM50.5 263.5V266.5H49.5V263.5H50.5ZM50.5 268.5V271.5H49.5V268.5H50.5ZM50.5 273.5V276.5H49.5V273.5H50.5ZM50.5 278.5V281.5H49.5V278.5H50.5ZM50.5 283.5V286.5H49.5V283.5H50.5ZM50.5 288.5V291.5H49.5V288.5H50.5ZM50.5 293.5V296.5H49.5V293.5H50.5ZM50.5 298.5V301.5H49.5V298.5H50.5ZM50.5 303.5V306.5H49.5V303.5H50.5ZM50.5 308.5V311.5H49.5V308.5H50.5ZM50.5 313.5V316.5H49.5V313.5H50.5ZM50.5 318.5V321.5H49.5V318.5H50.5ZM50.5 323.5V326.5H49.5V323.5H50.5ZM50.5 328.5V331.5H49.5V328.5H50.5ZM50.5 333.5V336.5H49.5V333.5H50.5ZM50.5 338.5V341.5H49.5V338.5H50.5ZM50.5 343.5V346.5H49.5V343.5H50.5ZM50.5 348.5V351.5H49.5V348.5H50.5ZM50.5 353.5V356.5H49.5V353.5H50.5ZM50.5 358.5V361.5H49.5V358.5H50.5ZM50.5 363.5V366.5H49.5V363.5H50.5ZM50.5 368.5V371.5H49.5V368.5H50.5ZM50.5 373.5V376.5H49.5V373.5H50.5ZM50.5 378.5V381.5H49.5V378.5H50.5ZM50.5 383.5V386.5H49.5V383.5H50.5ZM50.5 388.5V391.5H49.5V388.5H50.5ZM50.5 393.5V396.5H49.5V393.5H50.5ZM50.5 398.5V401.5H49.5V398.5H50.5ZM50.5 403.5V406.5H49.5V403.5H50.5ZM50.5 408.5V411.5H49.5V408.5H50.5ZM50.5 413.5V416.5H49.5V413.5H50.5ZM50.5 418.5V421.5H49.5V418.5H50.5ZM50.5 423.5V426.5H49.5V423.5H50.5ZM50.5 428.5V431.5H49.5V428.5H50.5ZM50.5 433.5V436.5H49.5V433.5H50.5ZM50.5 438.5V441.5H49.5V438.5H50.5ZM50.5 443.5V446.5H49.5V443.5H50.5ZM50.5 448.5V451.5H49.5V448.5H50.5ZM50.5 453.5V456.5H49.5V453.5H50.5ZM50.5 458.5V461.5H49.5V458.5H50.5ZM50.5 463.5V466.5H49.5V463.5H50.5ZM50.5 468.5V471.5H49.5V468.5H50.5ZM50.5 473.5V476.5H49.5V473.5H50.5ZM50.5 478.5V481.5H49.5V478.5H50.5ZM50.5 483.5V486.5H49.5V483.5H50.5ZM50.5 488.5V491.5H49.5V488.5H50.5ZM50.5 493.5V496.5H49.5V493.5H50.5ZM50.5 498.5V501.5H49.5V498.5H50.5ZM50.5 503.5V506.5H49.5V503.5H50.5ZM50.5 508.5V511.5H49.5V508.5H50.5ZM50.5 513.5V515H49.5V513.5H50.5ZM50 515.5H48.53V514.5H50V515.5ZM46.57 515.5H43.63V514.5H46.57V515.5ZM41.67 515.5H38.73V514.5H41.67V515.5ZM36.77 515.5H33.83V514.5H36.77V515.5ZM31.87 515.5H28.93V514.5H31.87V515.5ZM26.97 515.5H24.03V514.5H26.97V515.5ZM22.07 515.5H19.13V514.5H22.07V515.5ZM17.17 515.5H14.23V514.5H17.17V515.5ZM12.27 515.5H9.33V514.5H12.27V515.5ZM7.37 515.5H4.43V514.5H7.37V515.5ZM2.47 515.5H1V514.5H2.47V515.5Z" fill="#4B2EFF"/>
</svg>
