<svg width="51" height="254" viewBox="0 0 51 254" fill="none" xmlns="http://www.w3.org/2000/svg">
<circle opacity="0.6" cx="45.5" cy="4.5" r="4" stroke="#4B2EFF"/>
<path opacity="0.6" d="M1 5V4.5H0.5V5H1ZM1 250H0.5V250.5H1V250ZM50.3536 250.354C50.5488 250.158 50.5488 249.842 50.3536 249.646L47.1716 246.464C46.9763 246.269 46.6597 246.269 46.4645 246.464C46.2692 246.66 46.2692 246.976 46.4645 247.172L49.2929 250L46.4645 252.828C46.2692 253.024 46.2692 253.34 46.4645 253.536C46.6597 253.731 46.9763 253.731 47.1716 253.536L50.3536 250.354ZM41 4.5H39.5V5.5H41V4.5ZM37.5 4.5H34.5V5.5H37.5V4.5ZM32.5 4.5H29.5V5.5H32.5V4.5ZM27.5 4.5H24.5V5.5H27.5V4.5ZM22.5 4.5H19.5V5.5H22.5V4.5ZM17.5 4.5H14.5V5.5H17.5V4.5ZM12.5 4.5H9.5V5.5H12.5V4.5ZM7.5 4.5H4.5V5.5H7.5V4.5ZM2.5 4.5H1V5.5H2.5V4.5ZM0.5 5V6.5H1.5V5H0.5ZM0.5 8.5V11.5H1.5V8.5H0.5ZM0.5 13.5V16.5H1.5V13.5H0.5ZM0.5 18.5V21.5H1.5V18.5H0.5ZM0.5 23.5V26.5H1.5V23.5H0.5ZM0.5 28.5V31.5H1.5V28.5H0.5ZM0.5 33.5V36.5H1.5V33.5H0.5ZM0.5 38.5V41.5H1.5V38.5H0.5ZM0.5 43.5V46.5H1.5V43.5H0.5ZM0.5 48.5V51.5H1.5V48.5H0.5ZM0.5 53.5V56.5H1.5V53.5H0.5ZM0.5 58.5V61.5H1.5V58.5H0.5ZM0.5 63.5V66.5H1.5V63.5H0.5ZM0.5 68.5V71.5H1.5V68.5H0.5ZM0.5 73.5V76.5H1.5V73.5H0.5ZM0.5 78.5V81.5H1.5V78.5H0.5ZM0.5 83.5V86.5H1.5V83.5H0.5ZM0.5 88.5V91.5H1.5V88.5H0.5ZM0.5 93.5V96.5H1.5V93.5H0.5ZM0.5 98.5V101.5H1.5V98.5H0.5ZM0.5 103.5V106.5H1.5V103.5H0.5ZM0.5 108.5V111.5H1.5V108.5H0.5ZM0.5 113.5V116.5H1.5V113.5H0.5ZM0.5 118.5V121.5H1.5V118.5H0.5ZM0.5 123.5V126.5H1.5V123.5H0.5ZM0.5 128.5V131.5H1.5V128.5H0.5ZM0.5 133.5V136.5H1.5V133.5H0.5ZM0.5 138.5V141.5H1.5V138.5H0.5ZM0.5 143.5V146.5H1.5V143.5H0.5ZM0.5 148.5V151.5H1.5V148.5H0.5ZM0.5 153.5V156.5H1.5V153.5H0.5ZM0.5 158.5V161.5H1.5V158.5H0.5ZM0.5 163.5V166.5H1.5V163.5H0.5ZM0.5 168.5V171.5H1.5V168.5H0.5ZM0.5 173.5V176.5H1.5V173.5H0.5ZM0.5 178.5V181.5H1.5V178.5H0.5ZM0.5 183.5V186.5H1.5V183.5H0.5ZM0.5 188.5V191.5H1.5V188.5H0.5ZM0.5 193.5V196.5H1.5V193.5H0.5ZM0.5 198.5V201.5H1.5V198.5H0.5ZM0.5 203.5V206.5H1.5V203.5H0.5ZM0.5 208.5V211.5H1.5V208.5H0.5ZM0.5 213.5V216.5H1.5V213.5H0.5ZM0.5 218.5V221.5H1.5V218.5H0.5ZM0.5 223.5V226.5H1.5V223.5H0.5ZM0.5 228.5V231.5H1.5V228.5H0.5ZM0.5 233.5V236.5H1.5V233.5H0.5ZM0.5 238.5V241.5H1.5V238.5H0.5ZM0.5 243.5V246.5H1.5V243.5H0.5ZM0.5 248.5V250H1.5V248.5H0.5ZM1 250.5H2.47V249.5H1V250.5ZM4.43 250.5H7.37V249.5H4.43V250.5ZM9.33 250.5H12.27V249.5H9.33V250.5ZM14.23 250.5H17.17V249.5H14.23V250.5ZM19.13 250.5H22.07V249.5H19.13V250.5ZM24.03 250.5H26.97V249.5H24.03V250.5ZM28.93 250.5H31.87V249.5H28.93V250.5ZM33.83 250.5H36.77V249.5H33.83V250.5ZM38.73 250.5H41.67V249.5H38.73V250.5ZM43.63 250.5H46.57V249.5H43.63V250.5ZM48.53 250.5H50V249.5H48.53V250.5Z" fill="#4B2EFF"/>
</svg>
