<svg width="142" height="142" viewBox="0 0 142 142" fill="none" xmlns="http://www.w3.org/2000/svg">
<circle cx="51.0635" cy="21.5" r="1.5" fill="white"/>
<circle cx="51.0635" cy="15.5" r="1.5" fill="#5AE9CC"/>
<circle cx="51.0635" cy="9.5" r="1.5" fill="white"/>
<circle cx="62.4585" cy="23.2889" r="1.5" transform="rotate(18.2861 62.4585 23.2889)" fill="white"/>
<circle cx="72.6412" cy="28.1016" r="1.5" transform="rotate(33.3517 72.6412 28.1016)" fill="white"/>
<circle cx="64.3403" cy="17.5922" r="1.5" transform="rotate(18.2861 64.3403 17.5922)" fill="#5AE9CC"/>
<circle cx="75.94" cy="23.0894" r="1.5" transform="rotate(33.3517 75.94 23.0894)" fill="#5AE9CC"/>
<circle cx="66.2231" cy="11.8949" r="1.5" transform="rotate(18.2861 66.2231 11.8949)" fill="white"/>
<circle cx="79.2389" cy="18.0776" r="1.5" transform="rotate(33.3517 79.2389 18.0776)" fill="white"/>
<circle r="1.5" transform="matrix(-0.949502 0.313762 0.313762 0.949502 41.4214 22.2889)" fill="white"/>
<circle r="1.5" transform="matrix(-0.835312 0.549776 0.549776 0.835312 31.2377 27.1016)" fill="white"/>
<circle r="1.5" transform="matrix(-0.949502 0.313762 0.313762 0.949502 39.5386 16.5922)" fill="#5AE9CC"/>
<circle r="1.5" transform="matrix(-0.835312 0.549776 0.549776 0.835312 27.9399 22.0894)" fill="#5AE9CC"/>
<circle r="1.5" transform="matrix(-0.949502 0.313762 0.313762 0.949502 37.6558 10.8949)" fill="white"/>
<circle r="1.5" transform="matrix(-0.835312 0.549776 0.549776 0.835312 24.641 17.0776)" fill="white"/>
<path fill-rule="evenodd" clip-rule="evenodd" d="M25.0867 42.9654C20.1396 50.6803 18.5222 60.1212 18.5514 66.6906C18.5543 67.3461 18.4416 67.9986 18.1947 68.624L12.0728 84.133C11.8137 84.7892 12.2974 85.5001 13.0029 85.5001H17.0633C19.8247 85.5001 22.0633 87.7387 22.0633 90.5001V109.5C22.0633 112.262 24.3018 114.5 27.0633 114.5H45.5633C48.3247 114.5 50.5633 112.262 50.5633 109.5V77.5001H52.5633V109.5C52.5633 113.366 49.4292 116.5 45.5633 116.5H27.0633C23.1973 116.5 20.0633 113.366 20.0633 109.5V90.5001C20.0633 88.8433 18.7201 87.5001 17.0633 87.5001H13.0029C10.8863 87.5001 9.43531 85.3674 10.2124 83.3986L16.3344 67.8896C16.4818 67.5163 16.5532 67.1177 16.5514 66.6995C16.521 59.8689 18.1894 50.0164 23.4031 41.8858C28.6546 33.6962 37.484 27.2989 51.5775 27.5002C60.4993 27.6277 67.3182 29.9254 72.4968 33.4129C77.6703 36.8969 81.1507 41.5302 83.4613 46.2478C85.7698 50.961 86.9192 55.774 87.4297 59.6589C87.6852 61.6031 87.782 63.3244 87.782 64.6964C87.782 66.0429 87.6891 67.1197 87.5334 67.7427C87.4041 68.26 87.2801 68.8204 87.1454 69.4292C86.7829 71.0679 86.3426 73.0581 85.5101 75.5092C84.3583 78.9007 82.4498 83.2169 78.9175 89.0201C72.0348 100.327 69.5791 110.608 71.0583 125.401L69.0682 125.6C67.5474 110.392 70.0917 99.673 77.2091 87.9802C80.6767 82.2834 82.5182 78.0996 83.6164 74.866C84.4108 72.5269 84.8135 70.7057 85.1704 69.092C85.3113 68.4545 85.4451 67.8495 85.5931 67.2576C85.6874 66.8806 85.782 66.0043 85.782 64.6964C85.782 63.4142 85.6913 61.78 85.4468 59.9195C84.9573 56.195 83.8567 51.6018 81.6652 47.1275C79.4758 42.6576 76.2062 38.3221 71.3797 35.0718C66.5583 31.8249 60.1272 29.6226 51.549 29.5C38.2024 29.3094 29.996 35.3095 25.0867 42.9654Z" fill="white"/>
<circle r="1.5" transform="matrix(-1 0 0 1 29.0635 121.5)" fill="white"/>
<circle r="1.5" transform="matrix(-1 0 0 1 23.0635 121.5)" fill="white"/>
<circle r="1.5" transform="matrix(-1 0 0 1 18.0635 118.5)" fill="white"/>
<circle r="1.5" transform="matrix(-1 0 0 1 15.0635 113.5)" fill="white"/>
<circle r="1.5" transform="matrix(-1 0 0 1 15.0635 107.5)" fill="white"/>
<path fill-rule="evenodd" clip-rule="evenodd" d="M51.5635 77C59.8477 77 66.5635 70.2843 66.5635 62C66.5635 53.7157 59.8477 47 51.5635 47C43.2792 47 36.5635 53.7157 36.5635 62C36.5635 70.2843 43.2792 77 51.5635 77ZM51.5635 79C60.9523 79 68.5635 71.3888 68.5635 62C68.5635 52.6112 60.9523 45 51.5635 45C42.1746 45 34.5635 52.6112 34.5635 62C34.5635 71.3888 42.1746 79 51.5635 79Z" fill="white"/>
<path d="M53.8146 52.5131C54.527 52.6898 55.2191 52.9402 55.8797 53.2602C56.1681 53.3998 56.3359 53.7073 56.2973 54.0254L56.1125 55.5505C56.0265 56.2505 56.4807 56.9032 57.1673 57.066C57.3519 57.1098 57.5435 57.1144 57.7319 57.0792L59.2364 56.8019C59.5493 56.7442 59.8645 56.8903 60.0229 57.1662C60.7598 58.4508 61.1959 59.8857 61.2982 61.3631C61.3203 61.6817 61.1382 61.9793 60.8445 62.1047L59.4261 62.7103C59.0217 62.8822 58.7232 63.2364 58.6224 63.6641C58.5215 64.0918 58.6302 64.542 58.9158 64.8773L59.915 66.0535C60.1217 66.2969 60.1517 66.6446 59.9896 66.9198C59.238 68.1955 58.2071 69.2843 56.9743 70.1044C56.7096 70.2805 56.3625 70.2706 56.1083 70.0795L54.881 69.1569C54.5298 68.8932 54.0742 68.8122 53.6536 68.9388C53.2331 69.0654 52.8979 69.3844 52.7506 69.7982L52.2356 71.2453C52.1294 71.5437 51.8472 71.7432 51.5305 71.7438C50.0416 71.7467 48.5728 71.4002 47.2422 70.7323C46.9591 70.5902 46.7958 70.2856 46.8341 69.9712L47.0198 68.4487C47.0716 68.0133 46.9136 67.5791 46.5941 67.2788C46.2746 66.9784 45.8315 66.8475 45.401 66.9258L43.8905 67.2027C43.5776 67.2601 43.2626 67.1138 43.1045 66.8378C42.3679 65.5519 41.9325 64.1156 41.8313 62.6372C41.8094 62.3187 41.9916 62.0213 42.2852 61.8961L43.7056 61.29C44.11 61.1181 44.4084 60.7639 44.5093 60.3362C44.6102 59.9085 44.5015 59.4583 44.2162 59.1233L43.2167 57.948C43.0097 57.7046 42.9797 57.3568 43.1419 57.0814C43.8937 55.8055 44.925 54.7167 46.1583 53.8969C46.4233 53.7208 46.7706 53.731 47.0247 53.9225L48.2465 54.8427C48.598 55.1073 49.055 55.1877 49.478 55.0582C49.8988 54.9308 50.2343 54.6114 50.3821 54.1977L50.8979 52.7518C51.0056 52.4498 51.2934 52.2497 51.6139 52.2539C52.3487 52.2633 53.0805 52.3488 53.8146 52.5131ZM52.2528 59.0798C50.6402 58.6995 49.0246 59.6984 48.6442 61.311C48.2638 62.9236 49.2627 64.5392 50.8753 64.9196C52.4879 65.3 54.1035 64.3011 54.4839 62.6885C54.8643 61.0759 53.8654 59.4602 52.2528 59.0798Z" fill="#5AE9CC"/>
<path fill-rule="evenodd" clip-rule="evenodd" d="M20.5635 100C20.5635 99.4477 21.0112 99 21.5635 99H27.5635C28.1158 99 28.5635 99.4477 28.5635 100C28.5635 100.552 28.1158 101 27.5635 101H21.5635C21.0112 101 20.5635 100.552 20.5635 100Z" fill="white"/>
</svg>
