<svg width="146" height="142" viewBox="0 0 146 142" fill="none" xmlns="http://www.w3.org/2000/svg">
<path fill-rule="evenodd" clip-rule="evenodd" d="M120.031 57.7099C120.712 58.0865 121 58.6319 121 59V84C121 84.4591 120.552 85.194 119.454 85.5332C115.677 86.7002 112.7 89.6768 111.533 93.4536C111.194 94.5516 110.459 95 110 95H37C36.5409 95 35.806 94.5516 35.4668 93.4536C34.9334 91.7273 34.022 90.1682 32.8288 88.8727L31.4385 90.3164C32.3932 91.3782 33.1238 92.6456 33.5559 94.044C34.045 95.6271 35.3431 97 37 97H110C111.657 97 112.955 95.6271 113.444 94.044C114.416 90.8984 116.898 88.416 120.044 87.4441C121.627 86.955 123 85.6569 123 84V59C123 57.8193 122.303 56.8209 121.329 56.1674L120.031 57.7099ZM116.019 53.1597C114.839 52.0093 113.943 50.5699 113.444 48.956C112.955 47.3729 111.657 46 110 46H37C35.3431 46 34.045 47.3729 33.5559 48.956C32.584 52.1016 30.1016 54.584 26.956 55.5559C25.3729 56.045 24 57.3431 24 59V84C24 85.3771 24.9485 86.5064 26.1777 87.1293L27.6757 85.574C27.6327 85.5602 27.5896 85.5466 27.5464 85.5332C26.4484 85.194 26 84.4591 26 84V59C26 58.5409 26.4484 57.806 27.5464 57.4668C31.3232 56.2998 34.2998 53.3232 35.4668 49.5464C35.806 48.4484 36.5409 48 37 48H110C110.459 48 111.194 48.4484 111.533 49.5464C112.147 51.5322 113.261 53.2968 114.728 54.6934L116.019 53.1597ZM126.244 41.0073C126.163 41.0025 126.082 41 126 41H21C18.7909 41 17 42.7909 17 45V96.6588L15.0397 98.6942C15.0135 98.4664 15 98.2348 15 98V45C15 41.6863 17.6863 39 21 39H126C126.599 39 127.177 39.0877 127.722 39.2509L126.244 41.0073ZM130 45.863V98C130 100.209 128.209 102 126 102H21C20.7448 102 20.4951 101.976 20.2531 101.93L18.6998 103.543C19.4082 103.838 20.1851 104 21 104H126C129.314 104 132 101.314 132 98V45C132 44.5407 131.948 44.0934 131.851 43.6637L130 45.863ZM73.5 84C75.3231 84 77.055 83.6097 78.6168 82.9081L80.0837 84.4226C78.108 85.4312 75.8704 86 73.5 86C65.4919 86 59 79.5081 59 71.5C59 68.9645 59.6508 66.5809 60.7945 64.5073L62.2613 66.0217C61.4534 67.676 61 69.535 61 71.5C61 78.4036 66.5964 84 73.5 84ZM73.5 59C70.7468 59 68.2015 59.8901 66.1361 61.3983L64.733 59.9496C67.1678 58.0987 70.2056 57 73.5 57C81.5081 57 88 63.4919 88 71.5C88 74.9607 86.7876 78.1383 84.7644 80.6311L83.3613 79.1824C85.0148 77.0629 86 74.3965 86 71.5C86 64.5964 80.4036 59 73.5 59Z" fill="white"/>
<path fill-rule="evenodd" clip-rule="evenodd" d="M143.408 24.0043C143.958 23.9535 144.445 24.3581 144.496 24.908L145.324 33.8698C145.375 34.4198 144.971 34.9068 144.421 34.9576C143.871 35.0084 143.384 34.6038 143.333 34.0539L142.727 27.4961L89.5574 91.4962L58.5012 59.4382L1.71943 118.195L0.28125 116.805L58.4995 56.562L89.4432 88.5039L141.188 26.218L134.631 26.8242C134.081 26.8751 133.594 26.4705 133.543 25.9205C133.492 25.3706 133.897 24.8835 134.447 24.8327L143.408 24.0043Z" fill="#5AE9CC"/>
<circle cx="24.5" cy="34.5" r="1.5" fill="white"/>
<circle cx="27.5" cy="28.5" r="1.5" fill="#99D5C9"/>
<circle cx="24.5" cy="22.5" r="1.5" fill="white"/>
<circle cx="30.5" cy="34.5" r="1.5" fill="white"/>
<circle cx="33.5" cy="28.5" r="1.5" fill="#99D5C9"/>
<circle cx="30.5" cy="22.5" r="1.5" fill="white"/>
<circle cx="36.5" cy="34.5" r="1.5" fill="white"/>
<circle cx="109.5" cy="108.5" r="1.5" fill="white"/>
<circle cx="39.5" cy="28.5" r="1.5" fill="#99D5C9"/>
<circle cx="36.5" cy="22.5" r="1.5" fill="white"/>
<circle cx="42.5" cy="34.5" r="1.5" fill="white"/>
<circle cx="115.5" cy="108.5" r="1.5" fill="white"/>
<circle cx="45.5" cy="28.5" r="1.5" fill="#99D5C9"/>
<circle cx="42.5" cy="22.5" r="1.5" fill="white"/>
<circle cx="48.5" cy="34.5" r="1.5" fill="white"/>
<circle cx="121.5" cy="108.5" r="1.5" fill="white"/>
<circle cx="51.5" cy="28.5" r="1.5" fill="#99D5C9"/>
<circle cx="48.5" cy="22.5" r="1.5" fill="white"/>
<circle cx="54.5" cy="34.5" r="1.5" fill="white"/>
<circle cx="127.5" cy="108.5" r="1.5" fill="white"/>
<circle cx="133.5" cy="106.5" r="1.5" fill="white"/>
<circle cx="136.5" cy="101.5" r="1.5" fill="white"/>
<circle cx="136.5" cy="95.5" r="1.5" fill="white"/>
<circle cx="136.5" cy="89.5" r="1.5" fill="white"/>
<circle cx="136.5" cy="83.5" r="1.5" fill="white"/>
<circle cx="57.5" cy="28.5" r="1.5" fill="#99D5C9"/>
<circle cx="54.5" cy="22.5" r="1.5" fill="white"/>
</svg>
