<svg width="84" height="84" viewBox="0 0 84 84" fill="none" xmlns="http://www.w3.org/2000/svg">
<g filter="url(#filter0_dd)">
<circle cx="42" cy="32" r="30" fill="url(#paint0_radial)"/>
</g>
<path d="M42.5003 20.4167C49.174 20.4167 54.5837 25.8265 54.5837 32.5001C54.5837 39.1737 49.174 44.5834 42.5003 44.5834C35.8267 44.5834 30.417 39.1737 30.417 32.5001C30.417 25.8265 35.8267 20.4167 42.5003 20.4167ZM42.5003 24.0417C37.8289 24.0417 34.042 27.8287 34.042 32.5001C34.042 34.7379 34.912 36.774 36.3306 38.2868L36.5191 38.4801L38.2277 36.7727C37.1353 35.678 36.4587 34.1676 36.4587 32.5001C36.4587 29.1639 39.1641 26.4584 42.5003 26.4584C43.0417 26.4584 43.5661 26.5297 44.0651 26.6638L45.9537 24.7764C44.8989 24.3052 43.7304 24.0417 42.5003 24.0417ZM50.224 29.0479L48.3378 30.9353C48.4707 31.4343 48.542 31.9587 48.542 32.5001C48.542 34.1676 47.8653 35.678 46.773 36.7727L48.4816 38.4813C50.0113 36.9504 50.9587 34.8358 50.9587 32.5001C50.9587 31.27 50.6965 30.1015 50.224 29.0479ZM47.6261 25.6645L43.125 30.1644C42.9257 30.1112 42.7166 30.0834 42.5003 30.0834C41.1651 30.0834 40.0837 31.1649 40.0837 32.5001C40.0837 33.8353 41.1651 34.9167 42.5003 34.9167C43.8355 34.9167 44.917 33.8353 44.917 32.5001C44.917 32.2838 44.8892 32.0747 44.836 31.8754L49.3359 27.3731L47.6273 25.6645H47.6261Z" fill="white"/>
<defs>
<filter id="filter0_dd" x="0" y="0" width="84" height="84" filterUnits="userSpaceOnUse" color-interpolation-filters="sRGB">
<feFlood flood-opacity="0" result="BackgroundImageFix"/>
<feColorMatrix in="SourceAlpha" type="matrix" values="0 0 0 0 0 0 0 0 0 0 0 0 0 0 0 0 0 0 127 0"/>
<feMorphology radius="3" operator="erode" in="SourceAlpha" result="effect1_dropShadow"/>
<feOffset dy="10"/>
<feGaussianBlur stdDeviation="7.5"/>
<feColorMatrix type="matrix" values="0 0 0 0 0 0 0 0 0 0 0 0 0 0 0 0 0 0 0.1 0"/>
<feBlend mode="normal" in2="BackgroundImageFix" result="effect1_dropShadow"/>
<feColorMatrix in="SourceAlpha" type="matrix" values="0 0 0 0 0 0 0 0 0 0 0 0 0 0 0 0 0 0 127 0"/>
<feMorphology radius="2" operator="erode" in="SourceAlpha" result="effect2_dropShadow"/>
<feOffset dy="4"/>
<feGaussianBlur stdDeviation="3"/>
<feColorMatrix type="matrix" values="0 0 0 0 0 0 0 0 0 0 0 0 0 0 0 0 0 0 0.05 0"/>
<feBlend mode="normal" in2="effect1_dropShadow" result="effect2_dropShadow"/>
<feBlend mode="normal" in="SourceGraphic" in2="effect2_dropShadow" result="shape"/>
</filter>
<radialGradient id="paint0_radial" cx="0" cy="0" r="1" gradientUnits="userSpaceOnUse" gradientTransform="translate(61.5 49) rotate(-138.085) scale(59.1291)">
<stop stop-color="#0DAAAA"/>
<stop offset="1" stop-color="#5AE9CC"/>
</radialGradient>
</defs>
</svg>
