<svg width="152" height="30" viewBox="0 0 152 30" fill="none" xmlns="http://www.w3.org/2000/svg">
<circle opacity="0.2" r="3" transform="matrix(-1 0 0 1 149 5)" fill="#0D0630"/>
<circle opacity="0.2" r="3" transform="matrix(-1 0 0 1 133 5)" fill="#0D0630"/>
<circle opacity="0.2" r="3" transform="matrix(-1 0 0 1 117 5)" fill="#0D0630"/>
<circle opacity="0.2" r="3" transform="matrix(-1 0 0 1 149 25)" fill="#0D0630"/>
<circle opacity="0.2" r="3" transform="matrix(-1 0 0 1 133 25)" fill="#0D0630"/>
<circle opacity="0.2" r="3" transform="matrix(-1 0 0 1 117 25)" fill="#0D0630"/>
<circle opacity="0.2" r="3" transform="matrix(-1 0 0 1 101 5)" fill="#0D0630"/>
<circle opacity="0.2" r="3" transform="matrix(-1 0 0 1 85 5)" fill="#0D0630"/>
<circle opacity="0.2" r="3" transform="matrix(-1 0 0 1 69 5)" fill="#0D0630"/>
<circle r="5" transform="matrix(-1 0 0 1 53 5)" fill="#4B2EFF"/>
<circle opacity="0.2" r="3" transform="matrix(-1 0 0 1 101 25)" fill="#0D0630"/>
<circle opacity="0.2" r="3" transform="matrix(-1 0 0 1 85 25)" fill="#0D0630"/>
<circle opacity="0.2" r="3" transform="matrix(-1 0 0 1 69 25)" fill="#0D0630"/>
<circle opacity="0.2" r="3" transform="matrix(-1 0 0 1 53 25)" fill="#0D0630"/>
<circle opacity="0.2" r="3" transform="matrix(-1 0 0 1 37 25)" fill="#0D0630"/>
<circle opacity="0.2" r="3" transform="matrix(-1 0 0 1 21 25)" fill="#0D0630"/>
<circle r="5" transform="matrix(-1 0 0 1 5 25)" fill="#4B2EFF"/>
</svg>
