<svg width="126" height="28" viewBox="0 0 126 28" fill="none" xmlns="http://www.w3.org/2000/svg">
<path d="M28.2487 17.391C26.5588 17.391 25.1358 16.1505 25.1358 14.2307C25.1358 12.3699 26.5588 11.0999 28.2487 11.0999C29.9682 11.0999 31.3912 12.3699 31.3912 14.2307C31.3912 16.1505 29.9682 17.391 28.2487 17.391ZM28.2487 21.4079C32.162 21.4079 35.4527 18.5725 35.4527 14.2307C35.4527 9.88891 32.162 7.08301 28.2487 7.08301C24.3353 7.08301 21.0742 9.88891 21.0742 14.2307C21.0742 18.5725 24.3353 21.4079 28.2487 21.4079Z" fill="#001C20"/>
<path d="M48.6398 21.2954H51.3377V0H48.6398V9.56962C47.7208 8.00422 45.7938 7.20675 43.7482 7.20675C39.9534 7.20675 36.7812 9.98312 36.7812 14.384C36.7812 18.7553 39.9831 21.5907 43.7778 21.5907C45.7048 21.5907 47.7208 20.7342 48.6398 19.1688V21.2954ZM48.6102 14.3544C48.6102 17.2785 46.446 18.962 44.015 18.962C41.5247 18.962 39.5384 17.0717 39.5384 14.3544C39.5384 11.6076 41.5247 9.83544 44.015 9.83544C46.2385 9.83544 48.6102 11.4008 48.6102 14.3544Z" fill="#4B2EFF"/>
<path d="M65.0433 21.2954H67.7115V7.50211H65.0433V9.56962C64.1243 8.00422 62.1084 7.20675 60.1813 7.20675C56.3866 7.20675 53.1551 9.98312 53.1551 14.384C53.1551 18.7553 56.3866 21.5907 60.1813 21.5907C62.1084 21.5907 64.1243 20.7342 65.0433 19.1688V21.2954ZM65.0137 14.3544C65.0137 17.2785 62.8792 18.962 60.4185 18.962C57.9282 18.962 55.9122 17.0717 55.9122 14.3544C55.9122 11.6076 57.9282 9.83544 60.4185 9.83544C62.642 9.83544 65.0137 11.4008 65.0137 14.3544Z" fill="#4B2EFF"/>
<path d="M73.1459 7.50211H70.448V28H73.1459V19.2278C74.0649 20.8228 76.0512 21.5907 77.9782 21.5907C81.773 21.5907 84.9155 18.8143 84.9155 14.443C84.9155 10.0717 81.773 7.20675 77.9782 7.20675C76.0512 7.20675 74.0649 8.09283 73.1459 9.65823V7.50211ZM73.1755 14.4726C73.1755 11.5485 75.2804 9.83544 77.7114 9.83544C80.2017 9.83544 82.188 11.7257 82.188 14.4726C82.188 17.2194 80.2017 18.962 77.7114 18.962C75.4879 18.962 73.1755 17.4262 73.1755 14.4726Z" fill="#4B2EFF"/>
<path d="M90.3257 7.50211V2.3038H87.6279V7.50211H85.1376V9.77637H87.6279V21.2954H90.3257V9.77637H93.2607V7.50211H90.3257Z" fill="#4B2EFF"/>
<path d="M97.2074 21.2954H94.5392V7.50211H97.2074V21.2954ZM94.0056 2.42194C94.0056 3.42616 94.8654 4.16456 95.8733 4.16456C96.911 4.16456 97.7411 3.42616 97.7411 2.42194C97.7411 1.41772 96.911 0.679325 95.8733 0.679325C94.8654 0.679325 94.0056 1.41772 94.0056 2.42194Z" fill="#4B2EFF"/>
<path d="M98.1913 7.50211L103.943 21.2954H106.552H106.522L112.303 7.50211H109.427L105.247 17.8692L101.037 7.50211H98.1913Z" fill="#4B2EFF"/>
<path d="M114.735 13.3207C115.061 11.0169 116.84 9.62869 119.122 9.62869C121.346 9.62869 123.006 11.0169 123.332 13.3207H114.735ZM126 14.3544C126 9.98312 123.065 7.20675 119.122 7.20675C115.179 7.20675 112.037 9.98312 112.037 14.3544C112.037 18.7257 115.179 21.5907 119.122 21.5907C121.791 21.5907 124.311 20.3502 125.496 17.9283C124.755 17.6329 123.895 17.3376 123.184 17.0422C122.413 18.4008 120.872 19.1688 119.211 19.1688C116.869 19.1688 115.061 17.7215 114.735 15.4177H125.971C126 15.1224 126 14.6793 126 14.3544Z" fill="#4B2EFF"/>
<path fill-rule="evenodd" clip-rule="evenodd" d="M20.4624 0.587891H12.4062V4.60092H16.4343V8.61394H20.4624L20.4624 4.60092V0.587891Z" fill="#4B2EFF"/>
<path fill-rule="evenodd" clip-rule="evenodd" d="M10.1507 0.589844C4.43188 0.753076 0 5.35583 0 11.0411C0 16.771 4.5952 21.4672 10.4652 21.4672C16.2363 21.4672 20.2881 18.2126 20.4229 10.8613H20.3014H15.6936H10.1507V14.5533H15.3458C14.9032 16.3828 12.4629 17.5094 10.4652 17.5094C7.0262 17.5094 4.35803 14.5558 4.35803 11.0411C4.35803 7.60557 6.86489 4.78058 10.1507 4.61036V0.589844Z" fill="#001C20"/>
</svg>
