<svg width="84" height="84" viewBox="0 0 84 84" fill="none" xmlns="http://www.w3.org/2000/svg">
<g filter="url(#filter0_dd)">
<circle cx="42" cy="32" r="30" fill="url(#paint0_radial)"/>
</g>
<path fill-rule="evenodd" clip-rule="evenodd" d="M37.3495 21.2967C37.9076 21.0539 38.4994 21.4866 38.4994 22.0952C38.4994 22.4703 38.2654 22.8026 37.9235 22.9569C35.7229 23.9503 33.9499 25.7234 32.9564 27.924C32.8021 28.2659 32.4698 28.4999 32.0948 28.4999C31.4861 28.4999 31.0534 27.9081 31.2962 27.35C32.4729 24.6453 34.6448 22.4734 37.3495 21.2967ZM45.4994 22.0952C45.4994 22.4703 45.7335 22.8026 46.0753 22.9569C48.2759 23.9503 50.049 25.7234 51.0424 27.924C51.1967 28.2659 51.529 28.4999 51.9041 28.4999C52.5127 28.4999 52.9454 27.9081 52.7026 27.35C51.5259 24.6453 49.3541 22.4734 46.6494 21.2967C46.0912 21.0539 45.4994 21.4866 45.4994 22.0952ZM45.4994 41.9046C45.4994 41.5295 45.7335 41.1972 46.0753 41.0429C48.2759 40.0495 50.049 38.2764 51.0424 36.0758C51.1967 35.734 51.529 35.4999 51.9041 35.4999C52.5127 35.4999 52.9454 36.0917 52.7026 36.6498C51.5259 39.3546 49.3541 41.5264 46.6494 42.7031C46.0912 42.9459 45.4994 42.5132 45.4994 41.9046ZM32.9564 36.0758C32.8021 35.734 32.4698 35.4999 32.0948 35.4999C31.4861 35.4999 31.0534 36.0917 31.2962 36.6498C32.4729 39.3546 34.6448 41.5264 37.3495 42.7031C37.9076 42.9459 38.4994 42.5132 38.4994 41.9046C38.4994 41.5295 38.2654 41.1972 37.9235 41.0429C35.7229 40.0495 33.9499 38.2764 32.9564 36.0758ZM41.9995 25.5833C41.7739 25.5833 41.5512 25.5949 41.3321 25.6175C40.8514 25.6671 40.4215 25.3176 40.3719 24.8369C40.3223 24.3562 40.6718 23.9264 41.1525 23.8768C41.4312 23.848 41.7138 23.8333 41.9995 23.8333C45.8863 23.8333 49.137 26.5477 49.9632 30.1834C50.0703 30.6547 49.7751 31.1235 49.3039 31.2306C48.8327 31.3377 48.3638 31.0425 48.2567 30.5712C47.6076 27.7148 45.0514 25.5833 41.9995 25.5833ZM38.6407 25.4674C38.9117 25.8675 38.8069 26.4116 38.4068 26.6825C36.701 27.8376 35.5829 29.7884 35.5829 32C35.5829 33.3326 35.9881 34.5679 36.6821 35.5927C36.953 35.9928 36.8483 36.5369 36.4482 36.8078C36.048 37.0788 35.504 36.9741 35.233 36.5739C34.3492 35.2686 33.8329 33.6933 33.8329 32C33.8329 29.1834 35.2595 26.7002 37.4256 25.2335C37.8257 24.9625 38.3698 25.0672 38.6407 25.4674ZM49.2685 33.0557C49.7351 33.1814 50.0115 33.6615 49.8859 34.1282C48.9495 37.6059 45.7747 40.1666 41.9995 40.1666C40.6327 40.1666 39.342 39.8302 38.208 39.2348C37.7802 39.0102 37.6154 38.4812 37.8401 38.0534C38.0647 37.6255 38.5937 37.4608 39.0215 37.6854C39.9106 38.1522 40.9229 38.4166 41.9995 38.4166C44.9635 38.4166 47.4602 36.4062 48.1961 33.6732C48.3217 33.2065 48.8019 32.9301 49.2685 33.0557ZM41.9995 27.3333C39.4222 27.3333 37.3329 29.4226 37.3329 32C37.3329 34.5773 39.4222 36.6666 41.9995 36.6666C44.5769 36.6666 46.6662 34.5773 46.6662 32C46.6662 29.4226 44.5769 27.3333 41.9995 27.3333Z" fill="white"/>
<defs>
<filter id="filter0_dd" x="0" y="0" width="84" height="84" filterUnits="userSpaceOnUse" color-interpolation-filters="sRGB">
<feFlood flood-opacity="0" result="BackgroundImageFix"/>
<feColorMatrix in="SourceAlpha" type="matrix" values="0 0 0 0 0 0 0 0 0 0 0 0 0 0 0 0 0 0 127 0"/>
<feMorphology radius="3" operator="erode" in="SourceAlpha" result="effect1_dropShadow"/>
<feOffset dy="10"/>
<feGaussianBlur stdDeviation="7.5"/>
<feColorMatrix type="matrix" values="0 0 0 0 0 0 0 0 0 0 0 0 0 0 0 0 0 0 0.1 0"/>
<feBlend mode="normal" in2="BackgroundImageFix" result="effect1_dropShadow"/>
<feColorMatrix in="SourceAlpha" type="matrix" values="0 0 0 0 0 0 0 0 0 0 0 0 0 0 0 0 0 0 127 0"/>
<feMorphology radius="2" operator="erode" in="SourceAlpha" result="effect2_dropShadow"/>
<feOffset dy="4"/>
<feGaussianBlur stdDeviation="3"/>
<feColorMatrix type="matrix" values="0 0 0 0 0 0 0 0 0 0 0 0 0 0 0 0 0 0 0.05 0"/>
<feBlend mode="normal" in2="effect1_dropShadow" result="effect2_dropShadow"/>
<feBlend mode="normal" in="SourceGraphic" in2="effect2_dropShadow" result="shape"/>
</filter>
<radialGradient id="paint0_radial" cx="0" cy="0" r="1" gradientUnits="userSpaceOnUse" gradientTransform="translate(61.5 49) rotate(-138.085) scale(59.1291)">
<stop stop-color="#0DAAAA"/>
<stop offset="1" stop-color="#5AE9CC"/>
</radialGradient>
</defs>
</svg>
