<svg width="84" height="84" viewBox="0 0 84 84" fill="none" xmlns="http://www.w3.org/2000/svg">
<g filter="url(#filter0_dd)">
<circle cx="42" cy="32" r="30" fill="url(#paint0_radial)"/>
</g>
<path d="M40.2443 34.918L40.2434 43.6657H36.7492L36.7501 34.918H40.2443ZM48.1306 33.168H44.0456C43.5624 33.168 43.1706 33.5598 43.1706 34.043V38.1287C43.1706 38.6119 43.5624 39.0037 44.0456 39.0037H48.1306C48.6139 39.0037 49.0056 38.6119 49.0056 38.1287V34.043C49.0056 33.5598 48.6139 33.168 48.1306 33.168ZM47.2548 34.918V37.2537H44.9203V34.918H47.2548ZM37.5271 26.1692H32.0846L32.0847 27.528C32.0847 28.9057 33.1085 30.0443 34.4368 30.2245L34.6198 30.2431L34.8061 30.2494C36.2464 30.2494 37.4254 29.1304 37.5211 27.7143L37.5274 27.528L37.5271 26.1692ZM44.7196 26.1692H39.2771L39.2774 27.528C39.2774 28.9057 40.3012 30.0443 41.6295 30.2245L41.8124 30.2431L41.9987 30.2494C43.4391 30.2494 44.618 29.1304 44.7138 27.7143L44.7201 27.528L44.7196 26.1692ZM51.9145 26.1692H46.472L46.4728 27.528C46.4728 28.9057 47.4966 30.0443 48.8249 30.2245L49.0078 30.2431L49.1942 30.2494C50.6345 30.2494 51.8135 29.1304 51.9092 27.7143L51.9155 27.528L51.9145 26.1692ZM38.5708 22.0835H35.3805L33.2139 24.4192H37.8533L38.5708 22.0835ZM43.5968 22.0835H40.4025L39.6838 24.4192H44.3155L43.5968 22.0835ZM48.6186 22.0835H45.4285L46.146 24.4192H50.7851L48.6186 22.0835ZM30.5683 24.6991L34.3587 20.6134C34.4966 20.4647 34.681 20.3694 34.8796 20.3418L35.0001 20.3335H49.0001C49.203 20.3335 49.3982 20.4039 49.5535 20.5307L49.6416 20.6134L53.4592 24.7298L53.495 24.7752C53.6137 24.9334 53.6672 25.1129 53.6672 25.2892L53.6655 27.528C53.6655 28.6879 53.2239 29.7446 52.4996 30.5392L52.4987 42.7918C52.4987 43.2348 52.1695 43.6009 51.7424 43.6588L51.6237 43.6668L41.9946 43.6657L41.9954 34.043C41.9954 33.5598 41.6036 33.168 41.1204 33.168H35.8751C35.3919 33.168 35.0001 33.5598 35.0001 34.043L34.9992 43.6657L32.3766 43.6668C31.9336 43.6668 31.5675 43.3377 31.5096 42.9106L31.5016 42.7918L31.5007 30.5392C30.8246 29.7975 30.3948 28.8274 30.3406 27.7581L30.3347 27.528L30.3345 25.3396C30.3251 25.1794 30.3597 25.0146 30.4464 24.8638L30.5045 24.775L30.5683 24.6991Z" fill="white"/>
<defs>
<filter id="filter0_dd" x="0" y="0" width="84" height="84" filterUnits="userSpaceOnUse" color-interpolation-filters="sRGB">
<feFlood flood-opacity="0" result="BackgroundImageFix"/>
<feColorMatrix in="SourceAlpha" type="matrix" values="0 0 0 0 0 0 0 0 0 0 0 0 0 0 0 0 0 0 127 0"/>
<feMorphology radius="3" operator="erode" in="SourceAlpha" result="effect1_dropShadow"/>
<feOffset dy="10"/>
<feGaussianBlur stdDeviation="7.5"/>
<feColorMatrix type="matrix" values="0 0 0 0 0 0 0 0 0 0 0 0 0 0 0 0 0 0 0.1 0"/>
<feBlend mode="normal" in2="BackgroundImageFix" result="effect1_dropShadow"/>
<feColorMatrix in="SourceAlpha" type="matrix" values="0 0 0 0 0 0 0 0 0 0 0 0 0 0 0 0 0 0 127 0"/>
<feMorphology radius="2" operator="erode" in="SourceAlpha" result="effect2_dropShadow"/>
<feOffset dy="4"/>
<feGaussianBlur stdDeviation="3"/>
<feColorMatrix type="matrix" values="0 0 0 0 0 0 0 0 0 0 0 0 0 0 0 0 0 0 0.05 0"/>
<feBlend mode="normal" in2="effect1_dropShadow" result="effect2_dropShadow"/>
<feBlend mode="normal" in="SourceGraphic" in2="effect2_dropShadow" result="shape"/>
</filter>
<radialGradient id="paint0_radial" cx="0" cy="0" r="1" gradientUnits="userSpaceOnUse" gradientTransform="translate(61.5 49) rotate(-138.085) scale(59.1291)">
<stop stop-color="#0DAAAA"/>
<stop offset="1" stop-color="#5AE9CC"/>
</radialGradient>
</defs>
</svg>
